<?xml version="1.0" encoding="utf-8"?>
<!-- Generator: Adobe Illustrator 16.0.0, SVG Export Plug-In . SVG Version: 6.00 Build 0)  -->
<!DOCTYPE svg PUBLIC "-//W3C//DTD SVG 1.1//EN" "http://www.w3.org/Graphics/SVG/1.1/DTD/svg11.dtd">
<svg version="1.1" xmlns="http://www.w3.org/2000/svg" xmlns:xlink="http://www.w3.org/1999/xlink" x="0px" y="0px" width="960px"
	 height="560px" viewBox="0 0 960 560" enable-background="new 0 0 960 560" xml:space="preserve">
<g id="Layer_1">
	<polyline fill="none" stroke="#000000" stroke-miterlimit="10" points="0,40.75 35,72.5 84,72.5 94,78.5 105,78.5 	"/>
	<path fill="none" stroke="#000000" stroke-miterlimit="10" d="M0,51"/>
	<polyline fill="none" stroke="#000000" stroke-miterlimit="10" points="0,60.125 33,83.5 64,83.5 69,78.5 	"/>
	<polyline fill="none" stroke="#000000" stroke-miterlimit="10" points="0,72.312 26,96.5 118,96.5 128,104 	"/>
	<polyline fill="none" stroke="#000000" stroke-miterlimit="10" points="0,30.375 34.5,60.5 87,60.5 101,72.312 114.75,79 138,97.5 
		152,97.5 162.5,104 162.5,120 	"/>
	<polyline fill="none" stroke="#000000" stroke-miterlimit="10" points="-0.25,83.75 25.875,104.125 100.688,100.062 104.5,104 
		104.5,109.5 134,109.5 145,120 	"/>
	<polyline fill="none" stroke="#000000" stroke-miterlimit="10" points="161.75,78.562 154.5,71.812 154.5,30 145,24.5 128,24.5 
		118.5,19 118.5,14 101,0 	"/>
	<polyline fill="none" stroke="#000000" stroke-miterlimit="10" points="5.125,560.25 24.5,543 24.5,497 68.5,459 68.5,424 
		81.25,411 86,393.25 145,342.5 162,342.5 182.5,323 182.5,296 	"/>
	<polyline fill="none" stroke="#000000" stroke-miterlimit="10" points="13.094,560.25 28.5,543 28.5,499 72.375,459 
		75.844,428.125 93.5,413 93.5,395 145,348.5 162,348.5 	"/>
	<polyline fill="none" stroke="#000000" stroke-miterlimit="10" points="-1,412 17.5,394 17.5,385 45.5,362 45.5,339 59,327 	"/>
	<polyline fill="none" stroke="#000000" stroke-miterlimit="10" points="52.5,560 52.5,510 93.5,473 93.5,437 118.5,419 118.5,404 
		144.5,380 144.5,370 	"/>
	<polyline fill="none" stroke="#000000" stroke-miterlimit="10" points="62,561.289 57.75,516.645 104.5,477 104.5,443 137.5,419 
		137.5,399.5 144,399.5 144.5,406 144.5,394.5 152.5,394.5 152.5,399 157.5,394.5 157.5,375.5 162,375.5 162.5,384.5 167.5,384.5 
		167.5,359 	"/>
	<polyline fill="none" stroke="#000000" stroke-miterlimit="10" points="63.5,555 63.5,517 112.5,481 112.5,454 173.5,398.711 
		173.5,359 182.5,355 	"/>
	<polyline fill="none" stroke="#000000" stroke-miterlimit="10" points="76.5,560 76.5,522 122.5,486 122.5,455 182.5,404 
		182.5,370 189.5,369.5 189.5,378 193.5,376 193.5,342 	"/>
	<polyline fill="none" stroke="#000000" stroke-miterlimit="10" points="28.938,560 34.5,548 34.5,505 81.5,465 81.5,432 100.5,418 
		100.5,403 131.5,379 131.5,370 	"/>
	<polyline fill="none" stroke="#000000" stroke-miterlimit="10" points="87.5,555 87.5,530 134.5,488 134.5,470 206.5,412 
		206.5,336 193.5,323 193.5,243 242,204 	"/>
	<path fill="none" stroke="#000000" stroke-miterlimit="10" d="M897,390"/>
</g>
<g id="Layer_2">
</g>
</svg>
